<?xml version="1.0" standalone="no"?>
<!DOCTYPE svg PUBLIC "-//W3C//DTD SVG 20010904//EN" "http://www.w3.org/TR/2001/REC-SVG-20010904/DTD/svg10.dtd">
<svg version="1.0" xmlns="http://www.w3.org/2000/svg" width="16.000000pt" height="16.000000pt" viewBox="0 0 16.000000 16.000000" preserveAspectRatio="xMidYMid meet">
	<g transform="translate(0.000000,16.000000) scale(0.100000,-0.100000)" fill="#000000" stroke="none">
		<path d="M15 120 c16 -31 45 -41 45 -15 0 19 20 19 48 -1 12 -8 30 -14 40 -12
15 3 13 7 -10 31 -23 23 -35 27 -83 27 l-56 0 16 -30z" />
		<path d="M15 40 l-16 -30 56 0 c48 0 60 4 83 27 23 24 25 28 10 31 -10 2 -28
-4 -40 -12 -28 -20 -48 -20 -48 -1 0 26 -29 16 -45 -15z" />
	</g>
</svg>
